<svg version="1.1" viewBox="0.0 0.0 960.0 288.0" fill="none" stroke="none" stroke-linecap="square" stroke-miterlimit="10" xmlns:xlink="http://www.w3.org/1999/xlink" xmlns="http://www.w3.org/2000/svg"><clipPath id="g162d19f6339_0_4.0"><path d="m0 0l960.0 0l0 288.0l-960.0 0l0 -288.0z" clip-rule="nonzero"/></clipPath><g clip-path="url(#g162d19f6339_0_4.0)"><path fill="#000000" fill-opacity="0.0" d="m0 0l960.0 0l0 288.0l-960.0 0z" fill-rule="evenodd"/><path fill="#000000" fill-opacity="0.0" d="m14.094488 -19.636745l931.81104 0l0 294.11023l-931.81104 0z" fill-rule="evenodd"/><path fill="#7d7dff" d="m102.620735 209.22888q-16.78125 0 -29.703125 -6.109375q-12.90625 -6.125 -20.5 -17.796875q-7.59375 -11.671875 -8.28125 -28.0q-0.21875 -3.625 -0.21875 -9.171875q0 -5.5625 0.21875 -9.1875q0.6875 -16.546867 8.15625 -28.218742q7.484375 -11.671875 20.515625 -17.78125q13.03125 -6.125 29.8125 -6.125q15.640625 0 26.859367 4.421875q11.21875 4.421875 18.125 11.0q6.921875 6.5625 10.421875 13.484375q3.515625 6.90625 3.75 12.109375q0.21875 2.2656174 -1.59375 3.9687424q-1.8125 1.703125 -4.078125 1.703125l-28.781242 0q-2.5 0 -3.859375 -1.125q-1.359375 -1.140625 -2.484375 -3.40625q-2.71875 -7.0312424 -6.921875 -9.968742q-4.1875 -2.953125 -10.765625 -2.953125q-9.0625 0 -13.9375 5.890625q-4.875 5.890625 -5.328125 18.140617q-0.21875 9.0625 0 16.09375q0.6875 12.453125 5.4375 18.125q4.765625 5.671875 13.828125 5.671875q7.03125 0 11.109375 -3.0625q4.078125 -3.0625 6.578125 -9.859375q1.125 -2.265625 2.484375 -3.390625q1.359375 -1.140625 3.859375 -1.140625l28.781242 0q2.265625 0 4.078125 1.59375q1.8125 1.578125 1.59375 4.0625q-0.234375 3.640625 -2.28125 8.859375q-2.03125 5.203125 -6.34375 10.875q-4.296875 5.65625 -11.21875 10.421875q-6.90625 4.75 -16.656242 7.8125q-9.734375 3.0625 -22.65625 3.0625zm85.22715 40.796875q-2.5 0 -4.09375 -1.703125q-1.578125 -1.6875 -1.578125 -3.96875l0 -149.57812q0 -2.5 1.578125 -4.078125q1.59375 -1.59375 4.09375 -1.59375l25.609375 0q2.265625 0 3.953125 1.59375q1.703125 1.578125 1.703125 4.078125l0 8.15625q5.4375 -6.796875 14.046875 -11.4375q8.625 -4.65625 21.09375 -4.65625q11.32814 0 19.937515 3.515625q8.625 3.515625 14.84375 10.3125q6.234375 6.796875 9.640625 16.546875q3.40625 9.734375 3.859375 22.437492q0.21875 4.53125 0.21875 8.390625q0 3.84375 -0.21875 8.375q-0.453125 12.234375 -3.859375 21.984375q-3.40625 9.75 -9.53125 16.546875q-6.109375 6.796875 -14.84375 10.546875q-8.71875 3.734375 -20.04689 3.734375q-11.109375 0 -19.390625 -3.96875q-8.265625 -3.96875 -13.703125 -11.21875l0 50.3125q0 2.28125 -1.59375 3.96875q-1.578125 1.703125 -4.078125 1.703125l-27.640625 0zm54.15625 -71.171875q7.71875 0 12.015625 -3.171875q4.3125153 -3.171875 6.2343903 -8.609375q1.921875 -5.4375 2.375 -12.015625q0.453125 -7.03125 0 -14.046875q-0.453125 -6.578125 -2.375 -12.015625q-1.921875 -5.4374924 -6.2343903 -8.609367q-4.296875 -3.171875 -12.015625 -3.171875q-7.25 0 -11.78125 3.28125q-4.53125 3.28125 -6.578125 8.499992q-2.03125 5.21875 -2.484375 11.328125q-0.234375 4.3125 -0.234375 8.390625q0 4.078125 0.234375 8.609375q0.21875 5.671875 2.484375 10.546875q2.28125 4.875 6.8125 7.9375q4.53125 3.046875 11.546875 3.046875z" fill-rule="nonzero"/><path fill="#ffffff" d="m369.16483 209.22888q-10.875 0 -19.609375 -3.515625q-8.71875 -3.515625 -14.953125 -10.421875q-6.234375 -6.90625 -9.640625 -16.765625q-3.390625 -9.875 -3.84375 -22.5625q-0.234375 -4.53125 -0.234375 -8.046875q0 -3.515625 0.234375 -8.046875q0.453125 -12.015617 3.84375 -21.874992q3.40625 -9.859375 9.515625 -16.765625q6.125 -6.90625 14.96875 -10.640625q8.84375 -3.75 19.71875 -3.75q11.328125 0 19.484375 3.75q8.171875 3.734375 13.828125 9.625l0 -48.51563q0 -2.484375 1.578125 -4.0625q1.59375 -1.59375 4.09375 -1.59375l27.65625 0q2.265625 0 3.953125 1.59375q1.703125 1.578125 1.703125 4.0625l0 149.59375q0 2.265625 -1.703125 3.96875q-1.6875 1.703125 -3.953125 1.703125l-25.609375 0q-2.5 0 -4.09375 -1.703125q-1.578125 -1.703125 -1.578125 -3.96875l0 -7.25q-5.4375 6.578125 -14.0625 10.890625q-8.609375 4.296875 -21.296875 4.296875zm12.46875 -30.375q7.484375 0 11.890625 -3.28125q4.421875 -3.28125 6.578125 -8.5q2.15625 -5.21875 2.375 -11.328125q0.234375 -4.53125 0.234375 -8.609375q0 -4.09375 -0.234375 -8.390625q-0.21875 -5.671875 -2.484375 -10.546875q-2.265625 -4.8749924 -6.796875 -7.9218674q-4.53125 -3.0625 -11.5625 -3.0625q-7.484375 0 -11.90625 3.171875q-4.421875 3.171875 -6.34375 8.609367q-1.921875 5.4375 -2.375 12.015625q-0.6875 7.015625 0 14.046875q0.453125 6.578125 2.375 12.015625q1.921875 5.4375 6.34375 8.609375q4.421875 3.171875 11.90625 3.171875zm129.8638 30.375q-12.90625 0 -23.0 -5.890625q-10.078125 -5.890625 -15.75 -17.328125q-5.671875 -11.453125 -5.671875 -28.0l0 -63.234367q0 -2.5 1.578125 -4.078125q1.59375 -1.59375 4.09375 -1.59375l28.328125 0q2.5 0 4.1875 1.59375q1.703125 1.578125 1.703125 4.078125l0 61.874992q0 22.203125 19.71875 22.203125q9.296875 0 14.84375 -5.78125q5.5625 -5.78125 5.5625 -16.421875l0 -61.874992q0 -2.5 1.578125 -4.078125q1.59375 -1.59375 4.09375 -1.59375l28.328125 0q2.484375 0 4.0625 1.59375q1.59375 1.578125 1.59375 4.078125l0 106.51562q0 2.265625 -1.59375 3.96875q-1.578125 1.703125 -4.0625 1.703125l-26.296875 0q-2.265625 0 -3.96875 -1.703125q-1.703125 -1.703125 -1.703125 -3.96875l0 -8.609375q-5.890625 8.15625 -15.296875 12.359375q-9.40625 4.1875 -22.328125 4.1875zm156.39606 0q-26.734375 0 -42.609375 -14.5q-15.859375 -14.515625 -16.546875 -43.0625q0 -1.59375 0 -4.078125q0 -2.5 0 -3.859375q0.6875 -17.906242 8.046875 -30.703117q7.375 -12.8125 20.40625 -19.5q13.03125 -6.6875 30.484375 -6.6875q19.9375 0 32.96875 7.9375q13.046875 7.921875 19.609375 21.53125q6.578125 13.593742 6.578125 31.046867l0 5.4375q0 2.5 -1.59375 4.09375q-1.578125 1.578125 -4.078125 1.578125l-72.53125 0q0 0.21875 0 0.671875q0 0.453125 0 0.90625q0.234375 6.578125 2.375 12.015625q2.15625 5.4375 6.34375 8.609375q4.203125 3.171875 10.328125 3.171875q4.53125 0 7.59375 -1.46875q3.0625 -1.46875 5.09375 -3.390625q2.046875 -1.9375 3.171875 -3.296875q2.046875 -2.484375 3.28125 -3.046875q1.25 -0.578125 3.96875 -0.578125l28.109375 0q2.265625 0 3.734375 1.359375q1.484375 1.359375 1.25 3.625q-0.21875 3.859375 -3.84375 9.296875q-3.625 5.4375 -10.546875 10.765625q-6.90625 5.328125 -17.34375 8.734375q-10.421875 3.390625 -24.25 3.390625zm-19.265625 -73.203125l38.3125 0l0 -0.453125q0 -7.484375 -2.15625 -12.812492q-2.15625 -5.328125 -6.578125 -8.265625q-4.421875 -2.953125 -10.53125 -2.953125q-5.890625 0 -10.203125 2.953125q-4.3125 2.9375 -6.578125 8.265625q-2.265625 5.3281174 -2.265625 12.812492l0 0.453125zm105.180664 70.9375q-2.5 0 -4.09375 -1.703125q-1.578125 -1.703125 -1.578125 -3.96875l0 -149.59375q0 -2.484375 1.578125 -4.0625q1.59375 -1.59375 4.09375 -1.59375l26.734375 0q2.5 0 4.078125 1.59375q1.59375 1.578125 1.59375 4.0625l0 149.59375q0 2.265625 -1.59375 3.96875q-1.578125 1.703125 -4.078125 1.703125l-26.734375 0zm107.65173 2.265625q-14.734375 0 -25.046875 -3.28125q-10.3125 -3.296875 -16.78125 -8.046875q-6.453125 -4.765625 -9.625 -9.859375q-3.171875 -5.109375 -3.390625 -8.953125q-0.234375 -2.5 1.578125 -4.078125q1.8125 -1.59375 3.859375 -1.59375l25.84375 0q0.671875 0 1.234375 0.234375q0.578125 0.21875 1.25 0.90625q2.953125 1.578125 5.890625 3.96875q2.953125 2.375 6.796875 4.1875q3.859375 1.8125 9.296875 1.8125q6.34375 0 10.65625 -2.609375q4.3125 -2.609375 4.3125 -7.359375q0 -3.625 -2.046875 -6.0q-2.046875 -2.390625 -8.28125 -4.65625q-6.21875 -2.265625 -18.6875 -4.53125q-11.796875 -2.71875 -20.640625 -7.140625q-8.828125 -4.421875 -13.59375 -11.5625q-4.75 -7.140625 -4.75 -17.343742q0 -9.0625 5.890625 -17.4375q5.890625 -8.390625 17.21875 -13.71875q11.34375 -5.328125 28.109375 -5.328125q12.921875 0 22.65625 3.0625q9.75 3.046875 16.328125 7.8125q6.578125 4.765625 9.96875 9.75q3.40625 4.984375 3.640625 9.0625q0.21875 2.265625 -1.375 3.96875q-1.578125 1.703125 -3.625 1.703125l-23.5625 0q-0.90625 0 -1.8125 -0.34375q-0.90625 -0.34375 -1.59375 -0.796875q-2.71875 -1.359375 -5.4375 -3.625q-2.71875 -2.265625 -6.34375 -4.078125q-3.625 -1.8125 -9.0625 -1.8125q-6.125 0 -9.53125 2.71875q-3.390625 2.71875 -3.390625 7.03125q0 2.9375 1.921875 5.4375q1.921875 2.4843674 7.921875 4.5312424q6.015625 2.046875 18.71875 4.53125q15.625 2.5 24.921875 8.046875q9.296875 5.546875 13.265625 12.921875q3.96875 7.359375 3.96875 15.53125q0 10.875 -6.578125 19.265625q-6.578125 8.375 -19.15625 13.03125q-12.578125 4.640625 -30.9375 4.640625z" fill-rule="nonzero"/></g></svg>