<svg version="1.1" viewBox="0.0 0.0 32.0 32.0" fill="none" stroke="none" stroke-linecap="square" stroke-miterlimit="10" xmlns:xlink="http://www.w3.org/1999/xlink" xmlns="http://www.w3.org/2000/svg"><clipPath id="p.0"><path d="m0 0l32.0 0l0 32.0l-32.0 0l0 -32.0z" clip-rule="nonzero"/></clipPath><g clip-path="url(#p.0)"><path fill="#000000" fill-opacity="0.0" d="m0 0l32.0 0l0 32.0l-32.0 0z" fill-rule="evenodd"/><path fill="#0000ff" d="m0 5.33344l0 0c0 -2.9455774 2.3878624 -5.33344 5.33344 -5.33344l21.333118 0l0 0c1.4145164 0 2.771099 0.5619144 3.7713127 1.5621284c1.0002136 1.000214 1.5621281 2.3567953 1.5621281 3.7713113l0 21.333118c0 2.9455776 -2.3878632 5.333441 -5.333441 5.333441l-21.333118 0c-2.9455774 0 -5.33344 -2.3878632 -5.33344 -5.333441z" fill-rule="evenodd"/><path fill="#000000" fill-opacity="0.0" d="m0.471316 4.9790024E-4l31.055119 0l0 27.716536l-31.055119 0z" fill-rule="evenodd"/><path fill="#f3f3f3" d="m9.337377 20.699247q-1.5781255 0 -2.7968755 -0.578125q-1.21875 -0.578125 -1.9375 -1.671875q-0.70312476 -1.109375 -0.76562476 -2.640625q-0.03125 -0.34375 -0.03125 -0.859375q0 -0.53125 0.03125 -0.875q0.0625 -1.546875 0.76562476 -2.640625q0.703125 -1.109375 1.921875 -1.671875q1.234375 -0.578125 2.8125005 -0.578125q1.46875 0 2.515625 0.421875q1.0625 0.40625 1.703125 1.03125q0.65625 0.609375 0.984375 1.265625q0.34375 0.640625 0.359375 1.140625q0.015625 0.203125 -0.15625 0.375q-0.15625 0.15625 -0.375 0.15625l-2.703125 0q-0.234375 0 -0.375 -0.109375q-0.125 -0.109375 -0.234375 -0.328125q-0.25 -0.65625 -0.65625 -0.921875q-0.390625 -0.28125 -1.0 -0.28125q-0.859375 0 -1.3125 0.5625q-0.45312548 0.546875 -0.5000005 1.6875q-0.03125 0.859375 0 1.515625q0.0625 1.171875 0.5000005 1.71875q0.453125 0.53125 1.3125 0.53125q0.65625 0 1.03125 -0.28125q0.390625 -0.296875 0.625 -0.9375q0.109375 -0.21875 0.234375 -0.328125q0.140625 -0.109375 0.375 -0.109375l2.703125 0q0.21875 0 0.375 0.15625q0.171875 0.15625 0.15625 0.390625q-0.015625 0.328125 -0.21875 0.828125q-0.1875 0.484375 -0.59375 1.015625q-0.40625 0.53125 -1.0625 0.984375q-0.640625 0.453125 -1.5625 0.75q-0.90625 0.28125 -2.125 0.28125zm8.021148 3.828125q-0.234375 0 -0.390625 -0.15625q-0.140625 -0.15625 -0.140625 -0.375l0 -14.078125q0 -0.234375 0.140625 -0.375q0.15625 -0.15625 0.390625 -0.15625l2.40625 0q0.21875 0 0.375 0.15625q0.15625 0.140625 0.15625 0.375l0 0.765625q0.515625 -0.625 1.328125 -1.0625q0.8125 -0.4375 1.984375 -0.4375q1.0625 0 1.875 0.328125q0.8125 0.328125 1.390625 0.96875q0.59375 0.640625 0.90625 1.5625q0.328125 0.90625 0.359375 2.109375q0.03125 0.421875 0.03125 0.78125q0 0.359375 -0.03125 0.796875q-0.03125 1.140625 -0.359375 2.0625q-0.3125 0.921875 -0.890625 1.5625q-0.578125 0.640625 -1.40625 1.0q-0.8125 0.34375 -1.875 0.34375q-1.046875 0 -1.828125 -0.375q-0.78125 -0.375 -1.296875 -1.0625l0 4.734375q0 0.21875 -0.15625 0.375q-0.140625 0.15625 -0.375 0.15625l-2.59375 0zm5.09375 -6.6875q0.71875 0 1.125 -0.296875q0.40625 -0.296875 0.578125 -0.8125q0.1875 -0.515625 0.234375 -1.140625q0.046875 -0.65625 0 -1.3125q-0.046875 -0.625 -0.234375 -1.125q-0.171875 -0.515625 -0.578125 -0.8125q-0.40625 -0.3125 -1.125 -0.3125q-0.6875 0 -1.109375 0.3125q-0.421875 0.3125 -0.625 0.8125q-0.1875 0.484375 -0.234375 1.0625q-0.015625 0.40625 -0.015625 0.796875q0 0.375 0.015625 0.796875q0.03125 0.53125 0.234375 1.0q0.21875 0.453125 0.640625 0.75q0.4375 0.28125 1.09375 0.28125z" fill-rule="nonzero"/></g></svg>